<?xml version="1.0" encoding="UTF-8"?>
<svg id="_レイヤー_1" data-name="レイヤー 1" xmlns="http://www.w3.org/2000/svg" viewBox="0 0 240.99 213.6">
  <defs>
    <style>
      .cls-1 {
        fill: #a9a9a9;
      }
    </style>
  </defs>
  <path class="cls-1" d="M117.11,149.62c-16.69,4.58-35.06,1.54-49.1-8.58l-7.62,8.05c-.48.94.67,1.93.82,3,.5,3.63-1.11,5.98-3.25,8.62-10.79,13.33-25.51,25.47-36.62,38.76-10.43,8.39-25.18-1.66-20.43-14.45,1.74-4.69,15.65-17.29,19.91-21.85,5.6-5.98,13.81-16.72,19.79-21.43,3.52-2.78,5.47-2.42,9.76-2.15l6.85-7.85c-30.07-34.51-11.13-89.71,34.73-96.46,53.13-7.82,87.27,53.66,53.64,94.8l-10.04-14.39c1.34-3.63,3.49-6.76,4.59-10.56,11.6-39.82-35.19-69.99-66.18-43.36-27.67,23.78-12.25,70.13,23.95,72.59,3.36.23,6.21-.48,9.43-.21.75.37,9,12.69,9.48,13.85.22.55.4,1,.28,1.6Z"/>
  <path class="cls-1" d="M227.79,121.44v18.97h-36.89v18.43h49.37c-.18.53.54,1.18.54,1.36v17.62h-51.27l-16.98-16.64c.1-1.98-.55-3.9-.67-5.83-.53-8.09-.92-24.28,0-32.04.09-.79.07-1.39.84-1.87h55.07Z"/>
  <polygon class="cls-1" points="122.54 110.05 168.67 176.48 167.84 177.82 146.68 177.82 99.99 111.16 100.57 110.05 122.54 110.05"/>
  <path class="cls-1" d="M240.26,103.01h-67l-.84-1.36,17.11-17.62h50.45c.77.48.75,1.08.84,1.87.65,5.54-1.03,11.52-.57,17.1Z"/>
  <path class="cls-1" d="M110.87,70.48c7.13,1.18,9.75,11.98,4.96,17.16-.75.81-5.18,3.44-6.05,3.44h-24.68v-20.6h25.77Z"/>
  <path class="cls-1" d="M211.51,65.6v-9.76h2.71v15.45c0,.17-1.23,1.43-1.8,1.26l-13.88-5.38.8-2.63c.88-.2,6.88,2.9,8.51,3.36.46.13,1.39.93.94-.39-.49-1.44-6-8.05-7.37-9.44-.92-.93-6.72-5.31-6.71-5.75l1.89-1.89,14.92,15.17Z"/>
  <path class="cls-1" d="M212.05,15.72l-2.71-9.74,2.7-.56c.04,2.84,4.82,13.93,3.56,15.75-.42.58-.95.52-1.58.49-4.79-.25-9.61-1.49-14.46-1.05v-2.72s10.31.28,10.31.28c-5.22-4.32-10.96-7.85-17.14-10.53-.51-.22-.98.32-.72-.82l1.3-1.81,18.74,10.71Z"/>
  <path class="cls-1" d="M115.48,177.28l-10.3-3.25,5.89,8.4-1.39,1.29c-1.9.52-4.79-5.34-5.97-6.84-.35-.44.01-1-1.24-.68l.5,8.87-2.67.89-.98-15.34c.6-1.35,1.21-1.56,2.6-1.24,4.16.97,9.13,4.1,13.58,4.92l-.02,2.98Z"/>
  <path class="cls-1" d="M140.42,8.15l.49,1.82-7.33,5.17c-2.03-.78-2.34-1.41-.69-2.89.91-.82,6.7-4.71,7.53-4.09Z"/>
  <path class="cls-1" d="M133.9,201.72c.31.46-.83,2.86-1.82,2.63l-7.36-5.66,2.32-1.3,6.86,4.33Z"/>
  <path class="cls-1" d="M121.45,192.47c-.64,5.89-8.46-3.34-8.13-4.61.93-3.61,6.63,5.05,8.13,4.61Z"/>
  <path class="cls-1" d="M170.82,0v2.72s-8.86.57-8.86.57c-3.4-3.98,6.6-2.9,8.86-3.28Z"/>
  <path class="cls-1" d="M190.89,46.65l-.6,2.08c-1.16.74-6.88-2.59-8.38-3.19l.32-2.71,8.67,3.82Z"/>
  <path class="cls-1" d="M192.42,205.92l-8.03,3.88-.52-2.67c2.33-.19,5.22-3.1,6.98-3.61s1.95,1.04,1.56,2.4Z"/>
  <path class="cls-1" d="M162.69,210.88v2.72c-2.45-.31-12.14.45-8.37-3.73l8.37,1.02Z"/>
  <path class="cls-1" d="M127.42,17.89c2.32,1.67-4.69,6.67-5.69,8.12l-1.3-1.46c-.36-1.34,5.86-7.47,6.99-6.66Z"/>
  <path class="cls-1" d="M175.62,41.83l.08,2.09c-2.18.38-4.19-.45-6.25-.59-1.07-.08-3.2.96-3.51-.24-1.08-4.19,7.26-1.51,9.67-1.25Z"/>
  <polygon class="cls-1" points="147.44 208.22 146.69 210.87 138.25 207.34 139.62 204.98 147.44 208.22"/>
  <path class="cls-1" d="M186.55,2.72l-.25,1.64c-.97,1.36-7.64-1.32-9.52-1.11l.55-2.71,9.22,2.18Z"/>
  <polygon class="cls-1" points="155.09 2.17 155.07 4.86 146.44 7.03 146.4 4.61 155.09 2.17"/>
  <path class="cls-1" d="M159.97,41.74v2.71s-7.88,2.1-7.88,2.1c-.79-.84-2.1-2.06-.66-2.76,1.15-.56,7.94-2.65,8.54-2.05Z"/>
  <path class="cls-1" d="M202.63,193.58c.94.08,2.12,1.08,1.58,2.12-.45.88-5.47,5.7-6.53,5.43-3.23-.83,4.17-6.72,4.95-7.55Z"/>
  <path class="cls-1" d="M169.2,213.6v-2.71c1.82.67,8.54-2.38,9.22-.26.85,2.66-7.5,2.61-9.22,2.98Z"/>
</svg>