<?xml version="1.0" encoding="UTF-8"?>
<svg id="_レイヤー_1" data-name="レイヤー 1" xmlns="http://www.w3.org/2000/svg" viewBox="0 0 123.88 123.35">
  <defs>
    <style>
      .cls-1 {
        fill: #a9a9a9;
      }
    </style>
  </defs>
  <path class="cls-1" d="M86.02,84.46c-12.26,3.37-25.75,1.13-36.06-6.3l-5.6,5.92c-.35.69.5,1.42.6,2.2.37,2.67-.82,4.39-2.39,6.33-7.92,9.79-18.74,18.71-26.89,28.47-7.66,6.16-18.49-1.22-15.01-10.62,1.28-3.44,11.49-12.7,14.62-16.05,4.11-4.39,10.15-12.28,14.54-15.74,2.59-2.04,4.01-1.78,7.17-1.58l5.03-5.77C19.95,46,33.86,5.45,67.54.5c39.03-5.74,64.1,39.41,39.4,69.63l-7.38-10.57c.98-2.67,2.56-4.96,3.37-7.76C111.46,22.55,77.09.39,54.33,19.95c-20.32,17.46-9,51.51,17.59,53.32,2.47.17,4.56-.35,6.92-.15.55.27,6.61,9.32,6.96,10.17.17.4.3.73.21,1.18Z"/>
  <polygon class="cls-1" points="90 55.4 123.88 104.19 123.28 105.17 107.74 105.17 73.44 56.21 73.87 55.4 90 55.4"/>
  <path class="cls-1" d="M81.44,26.33c5.24.87,7.16,8.8,3.65,12.6-.55.59-3.8,2.53-4.44,2.53h-18.13v-15.13h18.93Z"/>
</svg>